<?xml version="1.0" encoding="UTF-8" standalone="no"?>
<!-- Generator: Adobe Illustrator 17.0.0, SVG Export Plug-In . SVG Version: 6.00 Build 0)  -->
<svg xmlns:dc="http://purl.org/dc/elements/1.1/" xmlns:cc="http://creativecommons.org/ns#" xmlns:rdf="http://www.w3.org/1999/02/22-rdf-syntax-ns#" xmlns:svg="http://www.w3.org/2000/svg" xmlns="http://www.w3.org/2000/svg" xmlns:sodipodi="http://sodipodi.sourceforge.net/DTD/sodipodi-0.dtd" xmlns:inkscape="http://www.inkscape.org/namespaces/inkscape" version="1.1" id="Layer_1" x="0px" y="0px" width="893.748px" height="364.193px" viewBox="0 0 893.748 364.193" enable-background="new 0 0 893.748 364.193" xml:space="preserve" inkscape:version="0.91 r13725" sodipodi:docname="signar-logo.svg"><metadata id="metadata45"><rdf:RDF><cc:Work rdf:about=""><dc:format>image/svg+xml</dc:format><dc:type rdf:resource="http://purl.org/dc/dcmitype/StillImage"/><dc:title/></cc:Work></rdf:RDF></metadata><defs id="defs43"/><sodipodi:namedview pagecolor="#ffffff" bordercolor="#666666" borderopacity="1" objecttolerance="10" gridtolerance="10" guidetolerance="10" inkscape:pageopacity="0" inkscape:pageshadow="2" inkscape:window-width="1366" inkscape:window-height="744" id="namedview41" showgrid="false" inkscape:zoom="0.68674106" inkscape:cx="605.11183" inkscape:cy="-33.915789" inkscape:window-x="0" inkscape:window-y="24" inkscape:window-maximized="1" inkscape:current-layer="Layer_1"/><g id="g3" style="fill:#333333"><g id="g5" style="fill:#333333"><path d="M128.854,139.951c-1.055-10.729-4.945-18.722-11.676-23.982c-6.735-5.256-16.833-7.889-30.294-7.889    c-24.826,0-37.236,8.52-37.236,25.561c0,6.104,2.574,11.202,7.731,15.305c5.152,4.103,13.411,7.524,24.771,10.256    c13.46,3.156,25.136,6.104,35.027,8.835c9.886,2.737,18.934,5.892,27.138,9.467c4.625,1.893,8.994,4.26,13.096,7.1    c4.102,2.841,7.573,6.366,10.413,10.571c2.84,4.211,5.099,9.26,6.785,15.147c1.682,5.892,2.524,13.046,2.524,21.458    c0,10.098-2.105,19.042-6.311,26.823c-4.211,7.785-9.891,14.357-17.041,19.723c-7.154,5.364-15.571,9.467-25.245,12.307    c-9.679,2.84-19.88,4.26-30.61,4.26c-30.506,0-53.438-5.892-68.792-17.671c-15.359-11.78-23.46-29.239-24.298-52.384h42.285    c0.207,10.729,4.576,19.2,13.096,25.402c8.52,6.208,19.195,9.31,32.03,9.31c13.885,0,24.402-2.524,31.556-7.573    c7.149-5.049,10.729-11.883,10.729-20.512c0-3.363-0.424-6.469-1.262-9.31c-0.843-2.84-2.475-5.413-4.891-7.73    c-2.421-2.313-5.734-4.364-9.94-6.154c-4.211-1.784-9.679-3.416-16.409-4.891c-15.99-3.363-29.821-6.785-41.497-10.256    c-11.676-3.472-21.3-7.78-28.874-12.938c-7.574-5.153-13.15-11.41-16.725-18.776c-3.58-7.362-5.364-16.725-5.364-28.085    c0-8.624,1.578-16.725,4.733-24.298c3.155-7.574,7.993-14.146,14.516-19.723c6.519-5.572,14.565-9.99,24.141-13.253    c9.57-3.259,20.876-4.892,33.923-4.892c12.623,0,23.983,1.632,34.081,4.892c10.098,3.264,18.776,7.889,26.034,13.884    c7.258,5.996,12.884,13.254,16.882,21.774c3.994,8.52,6.203,17.938,6.627,28.243H128.854z" id="path7" style="fill:#666666;fill-opacity:1" fill="#FFFFFF"/><path d="M188.18,113.76V75.577h41.023v38.183H188.18z M188.18,287.635V132.378h41.023v155.256H188.18z" id="path9" style="fill:#666666;fill-opacity:1" fill="#FFFFFF"/><path d="M354.793,266.807c-2.949,6.942-8.259,12.361-15.936,16.252c-7.682,3.895-16.567,5.838-26.665,5.838    c-12.834,0-23.618-2.259-32.345-6.785c-8.732-4.521-15.778-10.463-21.143-17.829c-5.364-7.361-9.26-15.882-11.676-25.561    c-2.421-9.674-3.629-19.564-3.629-29.663c0-11.991,1.785-22.981,5.365-32.976c3.575-9.989,8.412-18.509,14.516-25.561    c6.1-7.046,13.254-12.514,21.458-16.409c8.205-3.89,17.04-5.838,26.507-5.838c19.353,0,33.869,7.786,43.547,23.352v-19.249h41.023    v156.834c0,11.779-2.002,22.139-5.996,31.083c-3.999,8.938-9.467,16.409-16.409,22.404c-6.942,5.996-15.147,10.571-24.614,13.728    c-9.467,3.155-19.565,4.733-30.294,4.733s-20.724-1.529-29.979-4.576c-9.26-3.052-17.198-7.366-23.825-12.938    c-6.627-5.577-11.834-12.361-15.621-20.354c-3.787-7.997-5.68-17.04-5.68-27.138h38.183c0,9.467,3.102,16.773,9.309,21.932    c6.203,5.152,14.461,7.73,24.771,7.73c10.937,0,20.196-2.997,27.77-8.993c7.574-5.996,11.36-14.151,11.36-24.456V266.807z     M321.028,256.71c10.098,0,18.46-3.836,25.087-11.519c6.627-7.677,9.94-18.145,9.94-31.398c0-33.237-11.676-49.858-35.027-49.858    S286,179.712,286,211.268c0,13.885,3.313,24.93,9.94,33.134C302.567,252.607,310.93,256.71,321.028,256.71z" id="path11" style="fill:#666666;fill-opacity:1" fill="#FFFFFF"/><path fill="#FFFFFF" d="M511.625,287.635v-94.037c0-11.992-2.002-20.088-5.995-24.299c-3.999-4.206-10.838-6.311-20.512-6.311    c-21.251,0-31.872,11.888-31.872,35.659v88.988h-41.023V132.378h39.129v22.72c4.837-8.835,11.252-15.512,19.25-20.038    c7.992-4.521,18.302-6.785,30.925-6.785c7.361,0,14.2,1.104,20.512,3.313c6.311,2.209,11.725,5.522,16.251,9.94    c4.521,4.417,8.097,9.836,10.729,16.251c2.628,6.419,3.944,13.835,3.944,22.247v107.606H511.625z" id="path13" style="fill:#666666;fill-opacity:1"/></g><g id="g15" style="fill:#333333"><path d="M863.605,166.964c9.525-5.016,19.246-15.862,25.348-23.476c-0.011-2.668-0.02-5.358-0.075-8.081    c-6.843,0.767-13.815,0.073-18.531-2.249c6.354-3.347,12.73-9.277,18.139-15.114c-0.14-4.506-0.28-8.921-0.455-13.23    c-6.214,0.443-12.371-0.339-16.67-2.453c5.515-2.908,11.093-7.791,16.011-12.84c-0.895-18.663,4.909-66.159,4.909-66.159    c-46.203,55.288-72.55,187.401-53.911,270.434l12.974-21.965c0,0-5.795-34.296-2.622-51.566    c2.385-12.929,25.146-15.602,35.319-26.155c2.551-2.65,3.926-12.649,4.521-26.118    C879.963,170.283,869.828,170.023,863.605,166.964z" id="path17" style="fill:#666666" fill="#FFFFFF"/></g><g id="g19" style="fill:#333333"><path d="M462.857,352.797c-23.009-3.974-45.527-12.179-67.321-23.36c11.272,3.299,22.527,6.503,33.861,8.733    c11.302,2.494,22.636,4.406,33.951,5.523c9.804,0.8,19.604,1.13,29.273-0.018c-2.053-0.571-4.133-1.142-6.21-1.729    c-5.63-1.638-11.288-3.257-17.004-5.33c-2.869-1.09-5.709-2.139-8.763-3.992c-0.768-0.49-1.55-1.014-2.443-1.835    c-0.452-0.425-0.936-0.903-1.493-1.717c-0.521-0.848-1.365-2.036-1.652-4.804c-0.239-2.877,0.743-5.098,1.327-6.02    c0.642-1.033,1.168-1.525,1.645-1.981l0.754-0.616l0.592-0.414l1.223-0.731c6.341-3.119,12.074-3.434,17.947-4.018    c5.825-0.444,11.604-0.389,17.381-0.14c23.055,0.952,45.904,4.743,68.602,10c-11.474-0.246-22.917-0.908-34.362-0.927    c-11.446-0.262-22.874-0.334-34.253,0.031c-5.682,0.23-11.35,0.619-16.967,1.251c-4.344,0.583-8.856,1.297-12.826,2.808    c1.599,0.717,3.261,1.384,4.939,1.975c5.454,1.886,11.062,3.409,16.703,4.959c5.647,1.652,11.245,3.134,17.088,5.41    c1.539,0.703,2.834,1.066,4.949,2.762c0.319,0.305,0.616,0.56,1.088,1.212c0.374,0.623,1.306,1.696,1.458,4.792    c0.034,1.476-0.343,2.841-0.683,3.616c-0.338,0.789-0.693,1.287-0.922,1.586c-0.546,0.674-0.871,0.886-1.216,1.16    c-1.199,0.842-1.965,1.064-2.803,1.362c-3.188,1.008-6.008,1.453-8.994,1.818C486.03,355.528,474.348,354.845,462.857,352.797z" id="path21" style="fill:#666666;fill-opacity:1" fill="#FFFFFF"/></g><g id="g23" style="fill:#333333"><path d="M656.314,215.482c-8.757,1.723-14.776,3.91-18.058,6.568c-3.283,2.66-4.927,6.49-4.927,11.493    c0,8.6,4.927,12.899,14.779,12.899c3.905,0,7.54-0.663,10.905-1.994c3.36-1.326,6.252-3.125,8.677-5.394    c2.423-2.265,4.377-4.926,5.863-7.975c1.485-3.049,2.229-6.293,2.229-9.733l0.235-12.666c-1.564,1.566-3.833,2.815-6.803,3.754    C666.243,213.372,661.943,214.391,656.314,215.482z" id="path25" style="fill:#67a042;fill-opacity:1" fill="#FFFFFF"/><path d="M809.886,130.142c-3.934-3.938-8.355-5.866-13.976-5.866h-6.482V97.201    c0-25.854-9.399-48.055-27.951-66.604c-18.549-18.548-40.813-27.822-66.671-27.822c-25.856,0-48.037,9.274-66.581,27.822    c-18.551,18.549-27.797,40.75-27.797,66.604v27.075h-6.859c-5.62,0-10.351,1.929-14.285,5.866    c-3.936,3.932-5.856,8.676-5.856,14.301v121.405c0,5.623,1.922,9.999,5.856,13.932c3.934,3.932,8.665,5.496,14.285,5.496h202.347    c5.621,0,10.036-1.561,13.97-5.496c3.934-3.933,5.542-8.309,5.542-13.932v-121.41C815.429,138.819,813.82,134.076,809.886,130.142    z M641.429,97.201c0-14.896,4.949-27.611,15.489-38.15c10.539-10.538,23.092-15.805,37.984-15.805    c14.902,0,27.393,5.267,37.936,15.805c10.535,10.538,15.591,23.254,15.591,38.15v27.075h-107V97.201z M706.429,265.276h-28.301    c-0.94-3-1.566-6.444-1.877-10.354c-3.599,4.067-8.367,7.291-14.308,9.716c-5.944,2.422-12.821,3.625-20.639,3.625    c-13.291,0-23.024-2.936-29.199-8.799c-6.178-5.864-9.264-13.49-9.264-22.869c0-8.287,1.327-14.895,3.988-19.82    c2.655-4.925,6.33-8.794,11.022-11.61c4.69-2.815,10.278-4.886,16.769-6.217c6.486-1.326,13.562-2.54,21.226-3.635    c7.658-1.093,12.82-2.54,15.479-4.34c2.657-1.795,3.987-4.727,3.987-8.795c0-3.753-1.76-6.684-5.277-8.796    c-3.518-2.11-8.249-3.165-14.19-3.165c-7.037,0-12.078,1.532-15.127,4.659c-3.051,3.128-4.967,7.399-5.747,12.399h-28.379    c0.153-6,1.132-11.38,2.932-16.387c1.795-5.004,4.691-9.285,8.677-12.885c3.987-3.595,9.183-6.361,15.597-8.316    c6.409-1.955,14.225-2.93,23.455-2.93c9.066,0,16.769,1.021,23.101,3.051c6.331,2.035,11.411,4.965,15.244,8.794    c3.83,3.835,6.566,8.603,8.288,14.309c1.719,5.709,2.541,12.16,2.541,19.351V265.276z M785.429,177.956    c-3-0.469-5.452-0.704-8.266-0.704c-18.609,0-27.734,9.305-27.734,27.911v60.112h-31v-116h28v14.374    c3-3.907,5.563-6.957,8.299-9.148c2.736-2.187,5.771-3.87,8.667-5.043c2.889-1.173,5.933-1.656,8.905-1.971    c2.968-0.313,6.127-0.213,9.255-0.213h3.874V177.956z" id="path27" style="fill:#67a042;fill-opacity:1" fill="#FFFFFF"/></g></g><g id="g29"/><g id="g31"/><g id="g33"/><g id="g35"/><g id="g37"/><g id="g39"/></svg>